<svg width="1098" height="861" viewBox="0 0 1098 861" fill="none" xmlns="http://www.w3.org/2000/svg">
<path d="M909.953 206.105C909.958 230.967 905.065 255.586 895.553 278.556C886.042 301.526 872.097 322.397 854.518 339.977C836.938 357.557 816.067 371.501 793.096 381.013C770.126 390.525 745.507 395.418 720.645 395.413C616.095 395.413 531.337 310.656 531.337 206.105C531.319 185.768 534.579 165.562 540.992 146.263C553.582 108.572 577.702 75.7921 609.941 52.5593C642.181 29.3265 680.907 16.8161 720.645 16.7971C754.917 16.7852 788.549 26.0802 817.95 43.69C847.352 61.2997 871.419 86.563 887.584 116.783C891.591 124.239 895.088 131.959 898.048 139.889C898.458 140.994 898.858 142.098 899.247 143.213V143.223C900.982 148.124 902.511 153.116 903.833 158.2C907.91 173.841 909.967 189.941 909.953 206.105V206.105Z" fill="#3F3D56"/>
<path d="M699.934 78.3814C691.426 73.7808 681.98 71.1838 672.317 70.7884C662.653 70.3931 653.027 72.2098 644.172 76.1C636.376 79.493 628.166 85.5798 625.565 96.5712C636.084 90.3632 649.701 100.172 652.408 115.907L651.776 116.081C650.346 126.98 653.538 138.845 659.717 145.603C660.528 138.584 665.144 133.806 669.683 130.822C674.223 127.838 679.245 125.67 682.71 120.54C686.818 114.459 687.861 105.571 689.493 97.463C691.125 89.3551 694.221 80.6407 699.934 78.3814Z" fill="white"/>
<path d="M641.052 171.125C638.139 175.5 634.247 178.245 630.756 181.663C627.275 185.092 623.962 189.719 623.268 195.661C622.826 199.469 623.509 203.339 623.415 207.188C623.32 211.038 622.037 215.371 619.418 216.328C615.285 217.821 612.13 210.144 607.881 209.607C604.505 209.186 601.466 214.498 602.444 219.104C603.422 223.711 608.018 225.751 610.658 222.743C613.045 226.75 611.362 234.018 607.776 235.248C607.397 237.772 607.019 240.286 606.65 242.81C597.585 236.468 588.424 230.021 580.715 220.734C572.142 210.494 566.824 197.924 565.444 184.64C564.445 173.965 565.928 161.754 561.027 153.541C557.104 146.967 550.373 145.516 544.315 145.926C543.211 146 542.096 146.126 540.992 146.263C544.565 135.533 549.102 125.148 554.549 115.237C555.781 114.708 556.927 113.995 557.946 113.123C563.583 108.338 566.086 98.6518 570.661 91.9523C570.955 91.5211 571.26 91.1004 571.576 90.6903C576.256 84.5798 582.524 81.4352 588.582 78.5114C601.991 72.0014 615.79 65.4071 629.946 66.3116L625.918 66.7007C621.217 79.8682 616.512 93.0356 611.804 106.203C611.089 108.222 610.367 110.245 609.637 112.271C606.966 119.759 604.211 127.732 604.621 136.114C604.863 141.078 606.587 146.378 609.869 148.082C612.929 149.66 616.274 147.725 619.229 145.81C620.48 145.011 621.722 144.212 622.973 143.402C627.464 140.51 632.438 137.544 637.182 139.479C641.525 141.246 644.733 147.146 645.343 153.509C645.902 159.694 644.393 165.89 641.052 171.125V171.125Z" fill="white"/>
<path d="M667.761 261.023C654.645 252.947 641.529 244.871 628.413 236.796L628.636 236.222C620.481 239.328 617.095 253.824 618.443 265.678C619.791 277.533 624.36 288.13 626.669 299.68C629.782 315.487 628.607 331.839 623.266 347.038C640.513 327.686 655.776 306.654 668.827 284.258C670.65 281.435 672.039 278.354 672.948 275.119C673.781 271.678 673.653 267.54 671.984 264.78C670.911 263.196 669.459 261.904 667.761 261.023V261.023Z" fill="white"/>
<path d="M615.997 114.103C614.605 117.235 614.069 121.41 615.333 124.65C616.623 127.959 619.352 129.455 621.864 130.7L629.111 134.292C631.522 135.487 634.121 136.694 636.579 135.711C639.543 134.525 641.599 129.878 641.067 125.563C640.501 120.972 637.607 117.814 634.931 115.124C631.185 111.361 627.44 107.597 623.694 103.834L621.583 106.419C619.3 108.646 617.411 111.244 615.997 114.103V114.103Z" fill="white"/>
<path d="M871.103 163.185C874.364 163.952 877.624 164.72 880.884 165.488C880.316 176.499 874.858 186.691 867.538 190.382C864.488 191.917 861.091 192.485 858.567 195.357C856.285 197.965 855.128 202.024 854.066 205.905C852.204 212.678 850.342 219.451 848.481 226.224C846.483 233.523 843.917 241.632 838.721 244.261C834.262 246.522 829.161 243.756 825.733 239.118C822.304 234.48 820.211 228.243 818.181 222.165C818.307 228.79 815.226 235.29 810.861 237.593C806.486 239.896 801.164 237.814 798.241 232.671C796.137 228.98 795.264 224.11 793.203 220.366C791.142 216.622 786.819 214.477 784.569 217.989C783.086 220.324 783.275 223.9 782.539 226.866C781.392 231.472 777.922 234.364 774.483 234.617C771.054 234.869 767.71 232.892 764.838 230.21C758.917 224.657 754.553 215.844 752.859 206.052C752.113 201.688 751.902 196.934 753.196 192.843C754.49 188.752 757.613 185.597 760.716 186.375C762.756 182.063 758.728 176.342 755.1 176.846C751.461 177.351 748.611 181.253 745.624 184.25C742.647 187.248 738.483 189.425 735.485 186.448C735.506 189.214 733.256 191.044 731.31 190.813C729.375 190.592 727.65 189.036 725.873 187.931C719.005 183.651 710.286 186.491 705.406 194.589C708.456 181.611 712.926 166.718 722.297 163.668C726.125 162.417 730.3 163.448 733.918 161.281C740.323 157.442 741.617 142.939 736.085 136.955C736.789 142.613 736.653 149.218 733.666 153.088C730.679 156.959 724.411 154.434 724.789 148.713C723.927 152.657 719.636 153.256 717.659 150.227C715.671 147.199 715.839 142.245 717.249 138.627C718.658 135.009 721.056 132.412 723.38 129.919C728.376 124.566 733.445 119.149 739.229 115.784C745.024 112.418 751.713 111.283 757.518 114.627C760.579 116.394 763.271 119.339 766.395 120.895C769.519 122.462 773.483 122.263 775.555 118.603C777.88 114.522 776.786 108.464 777.648 103.363C779.194 94.3501 788.207 90.1328 793.203 96.0853C789.47 95.1283 785.61 99.5455 785.147 104.899C784.674 110.252 787.377 115.658 790.994 117.277C797.073 119.97 803.026 113.197 807.622 106.929C812.418 100.366 817.221 93.8067 822.03 87.2511C822.799 86.1349 823.661 85.0864 824.607 84.117C826.114 82.6487 828.122 81.8079 830.225 81.7649C832.328 81.722 834.369 82.4801 835.934 83.8857C840.793 87.8505 843.075 95.9804 847.061 101.575C852.846 109.705 861.501 111.682 869.557 113.26C875.563 114.427 881.571 115.602 887.584 116.783C891.592 124.239 895.088 131.959 898.048 139.889C887.868 144.212 878.476 152.3 871.103 163.185Z" fill="white"/>
<path d="M890.518 289.727C886.012 298.876 880.771 307.644 874.847 315.946C871.061 314.326 866.991 317.218 863.447 319.932C859.745 322.771 855.296 325.537 851.499 322.95C847.618 320.3 846.367 312.885 847.597 307.006C848.828 301.138 851.899 296.468 854.875 292.03C858.03 287.318 861.406 282.428 865.792 280.598C870.188 278.768 875.836 281.355 877.119 287.602L880.232 287.497C878.486 285.099 879.401 280.135 881.746 279.262C884.449 278.242 886.795 281.954 888.393 285.236C889.108 286.719 889.834 288.212 890.518 289.727Z" fill="white"/>
<path d="M771.29 245.303C764.598 245.724 759.298 237.487 755.776 229.383C752.254 221.279 749.04 212.012 743.003 207.887C739.553 205.53 735.62 205.207 731.878 204.065C728.136 202.923 724.219 200.56 722.43 195.747L718.186 194.032C712.58 197.184 706.9 200.394 702.07 205.523C696.653 211.278 693.278 218.655 692.468 226.517C691.657 235.013 694.651 244.486 700.245 247.678C704.666 250.2 709.813 248.61 714.291 250.919C719.885 253.803 723.207 262.182 724.464 270.456C725.721 278.729 725.403 287.327 726.302 295.694C727.202 304.061 729.681 312.767 734.811 317.055C741.232 322.421 750.653 317.962 753.533 308.195C754.946 303.404 754.897 297.998 755.954 293.024C757.815 284.266 762.837 277.768 766.82 270.583C770.803 263.399 773.939 253.641 771.29 245.303Z" fill="white"/>
<path d="M705.17 159.24C705.794 159.815 706.376 160.433 706.912 161.09C707.467 162.047 707.75 163.137 707.732 164.243C707.713 165.349 707.392 166.429 706.805 167.366C707.611 167.32 708.399 167.107 709.119 166.742C709.838 166.376 710.474 165.865 710.986 165.241C712.208 163.85 713.282 162.337 714.192 160.725C714.875 159.612 715.601 158.107 715.137 156.786C714.821 155.884 714.074 155.499 713.55 154.82C712.719 153.745 712.513 152.037 712.083 150.561C711.155 147.373 708.931 145.029 706.516 144.694L706.852 144.758C705.843 145.104 705.139 146.705 705.362 148.146C705.565 149.459 706.408 150.548 706.324 151.887C706.204 153.812 704.28 154.715 704.161 156.64C704.143 157.605 704.505 158.54 705.17 159.24V159.24Z" fill="white"/>
<path d="M693.705 126.532C693.715 126.529 693.725 126.528 693.735 126.526C693.941 126.338 694.132 126.135 694.306 125.918L693.705 126.532Z" fill="#E6E6E6"/>
<path d="M695.712 135.566C697.191 134.615 698.018 131.984 697.528 129.782C697.042 127.593 695.322 126.122 693.735 126.526C693.275 126.993 692.703 127.335 692.074 127.52C691.445 127.705 690.78 127.727 690.14 127.584C689.159 127.332 688.082 126.681 687.231 127.42C686.744 127.972 686.403 128.638 686.24 129.355C685.925 130.322 685.61 131.289 685.295 132.255C685.146 132.602 685.107 132.985 685.183 133.355C685.244 133.502 685.341 133.632 685.466 133.732C685.591 133.831 685.74 133.897 685.897 133.922C687.787 134.479 689.677 135.036 691.566 135.593C692.944 135.999 694.43 136.39 695.712 135.566Z" fill="white"/>
<path d="M838.368 260.298C837.494 258.868 836.621 257.438 835.747 256.008C834.889 254.352 833.716 252.879 832.294 251.672C831.981 251.41 831.619 251.213 831.23 251.093C830.84 250.973 830.43 250.932 830.024 250.973C829.618 251.014 829.225 251.135 828.866 251.33C828.508 251.525 828.192 251.79 827.938 252.108L828.044 252.925C830.035 255.423 832.142 258.198 832.647 261.906C832.846 263.367 832.777 264.88 832.951 266.348C833.126 267.815 833.622 269.338 834.57 269.971C835.945 270.889 837.56 269.535 838.539 267.881C839.414 266.524 839.807 264.911 839.654 263.303C839.436 262.224 838.998 261.201 838.368 260.298V260.298Z" fill="white"/>
<path d="M877.243 205.681C877.496 204.024 877.748 202.368 878.001 200.711C878.411 198.891 878.462 197.009 878.151 195.17C878.081 194.768 877.931 194.385 877.71 194.042C877.489 193.699 877.201 193.404 876.865 193.174C876.528 192.943 876.149 192.783 875.749 192.701C875.35 192.62 874.938 192.619 874.538 192.699L874.093 193.392C874.008 196.585 873.832 200.065 871.831 203.226C871.042 204.473 870.015 205.585 869.204 206.821C868.392 208.056 867.792 209.541 868.109 210.635C868.569 212.224 870.677 212.227 872.491 211.593C874.035 211.118 875.374 210.136 876.292 208.807C876.82 207.841 877.144 206.777 877.243 205.681V205.681Z" fill="#E6E6E6"/>
<path d="M852.07 262.159C852.497 260.932 851.881 259.524 851.751 258.167C851.688 256.414 852.153 254.683 853.084 253.197C854.01 251.796 854.711 250.259 855.163 248.641C855.353 247.904 855.318 247.127 855.063 246.41C854.774 245.76 854.074 245.464 853.672 245.978L854.531 246.532C853.371 246.325 852.178 246.383 851.043 246.701C850.395 246.949 849.817 247.349 849.356 247.868C848.896 248.387 848.568 249.009 848.399 249.681C848.257 250.73 848.025 251.765 847.705 252.774C847.193 253.828 846.2 254.178 845.576 255.104C845.151 255.924 844.936 256.837 844.951 257.761C844.967 258.684 845.212 259.59 845.664 260.395C846.447 261.713 847.693 262.692 849.158 263.143C850.208 263.52 851.59 263.54 852.07 262.159Z" fill="white"/>
<path d="M876.472 269.522C876.852 270.509 877.36 271.442 877.984 272.297C879.153 273.474 880.74 272.75 882.158 272.464C883.444 272.261 884.761 272.41 885.969 272.895C887.178 273.379 888.232 274.182 889.022 275.218C888.472 272.476 887.273 269.907 885.524 267.726C883.776 265.544 881.529 263.814 878.973 262.681C875.632 261.319 872.114 261.188 868.639 261.065L868.039 261.219C869.568 265.671 874.37 265.571 876.472 269.522Z" fill="white"/>
<path d="M773.12 278.627L773.129 278.646C773.187 278.534 773.245 278.422 773.304 278.31L773.12 278.627Z" fill="#E6E6E6"/>
<path d="M769.418 285.792C768.611 287.258 767.917 288.783 767.341 290.355C766.58 292.9 766.075 295.515 765.836 298.161C765.648 299.665 765.59 301.587 766.533 302.32C766.803 302.5 767.13 302.575 767.452 302.531C767.774 302.487 768.069 302.328 768.282 302.082C768.805 301.528 769.234 300.891 769.55 300.198C771.402 297.007 772.841 293.593 773.83 290.039C774.732 286.295 774.724 281.888 773.129 278.646C771.892 281.028 770.655 283.41 769.418 285.792Z" fill="white"/>
<path d="M733.706 94.8901C734.294 95.4648 735.037 95.855 735.844 96.0125C736.651 96.17 737.487 96.088 738.248 95.7765C739.824 95.0875 741.269 94.1326 742.522 92.9535C743.558 92.1864 744.438 91.2268 745.112 90.1273C745.484 89.4702 745.722 88.7463 745.813 87.997C745.904 87.2477 745.846 86.4877 745.642 85.7609C745.057 84.0491 743.572 83.4754 742.262 83.0868C740.164 82.4648 738.067 81.8429 735.969 81.2209L737.487 79.8534C735.926 79.0156 734.199 80.5705 733.223 82.4955C732.597 83.7524 732.161 85.0951 731.929 86.4798C731.406 89.5013 731.917 93.0993 733.706 94.8901Z" fill="#E6E6E6"/>
<path d="M770.736 82.4587C771.328 83.1104 772.145 83.5127 773.022 83.5841C773.899 83.6554 774.77 83.3904 775.459 82.8429C776.052 82.3976 776.544 81.8325 776.904 81.1843C777.264 80.5361 777.483 79.8194 777.547 79.0808C777.696 77.4309 776.88 75.5972 775.715 75.4548L775.982 73.9101C773.737 73.5048 770.976 73.4236 769.773 76.1491C769.367 77.1931 769.243 78.3253 769.412 79.4326C769.581 80.5398 770.038 81.5833 770.736 82.4587Z" fill="#E6E6E6"/>
<path d="M765.789 0.314802C752.632 -1.16939 739.423 2.63408 729.07 10.8885C718.717 19.1429 712.066 31.172 710.582 44.3297C707.492 71.7291 721.926 131.228 748.244 155.858C760.636 108.669 804.059 80.6789 809.804 55.522C815.944 28.641 793.189 3.40548 765.789 0.314802Z" fill="#6C63FF"/>
<path d="M756.69 61.2265C765.682 61.2265 772.972 53.9366 772.972 44.944C772.972 35.9515 765.682 28.6616 756.69 28.6616C747.697 28.6616 740.407 35.9515 740.407 44.944C740.407 53.9366 747.697 61.2265 756.69 61.2265Z" fill="white"/>
<path d="M739.569 179.335C745.459 179.335 750.234 174.56 750.234 168.67C750.234 162.78 745.459 158.005 739.569 158.005C733.679 158.005 728.905 162.78 728.905 168.67C728.905 174.56 733.679 179.335 739.569 179.335Z" fill="#6C63FF"/>
<path opacity="0.2" d="M770.162 33.2787C771.994 34.38 773.592 35.8315 774.864 37.5504C776.136 39.2692 777.057 41.2217 777.574 43.2964C778.091 45.3711 778.195 47.5274 777.879 49.6421C777.563 51.7568 776.833 53.7885 775.732 55.6213C774.63 57.454 773.179 59.052 771.46 60.3238C769.741 61.5956 767.789 62.5164 765.714 63.0336C761.524 64.0782 757.091 63.4155 753.389 61.1913C757.163 62.0309 761.113 61.4999 764.531 59.6935C767.949 57.8871 770.613 54.9231 772.046 51.3321C773.478 47.7411 773.586 43.7575 772.35 40.0942C771.113 36.431 768.614 33.3273 765.298 31.3386C767.014 31.7187 768.656 32.3739 770.162 33.2787V33.2787Z" fill="#231F20"/>
<path opacity="0.2" d="M809.868 55.5746C804.123 80.7314 760.7 108.721 748.308 155.91C745.833 153.572 743.534 151.053 741.431 148.376C755.355 104.019 796.076 77.0668 801.627 52.7607C806.595 31.0063 792.639 10.3317 772.612 1.59814C796.854 7.69211 815.495 30.9407 809.868 55.5746Z" fill="#231F20"/>
<path d="M613.207 63.8463C603.326 62.7317 593.407 65.588 585.632 71.7867C577.857 77.9855 572.863 87.019 571.748 96.8999C569.427 117.476 580.267 162.157 600.031 180.654C609.337 145.216 641.946 124.197 646.26 105.305C650.871 85.1183 633.783 66.1673 613.207 63.8463Z" fill="#6C63FF"/>
<path d="M606.373 109.589C613.126 109.589 618.601 104.114 618.601 97.3613C618.601 90.6083 613.126 85.1338 606.373 85.1338C599.62 85.1338 594.146 90.6083 594.146 97.3613C594.146 104.114 599.62 109.589 606.373 109.589Z" fill="white"/>
<path d="M593.516 198.284C597.939 198.284 601.525 194.698 601.525 190.275C601.525 185.852 597.939 182.267 593.516 182.267C589.093 182.267 585.507 185.852 585.507 190.275C585.507 194.698 589.093 198.284 593.516 198.284Z" fill="#6C63FF"/>
<path opacity="0.2" d="M616.49 88.601C617.866 89.4281 619.066 90.5181 620.021 91.8089C620.977 93.0997 621.668 94.5659 622.056 96.124C622.445 97.682 622.523 99.3012 622.285 100.889C622.048 102.477 621.5 104.003 620.673 105.379C619.846 106.756 618.756 107.956 617.465 108.911C616.174 109.866 614.708 110.557 613.15 110.946C611.592 111.334 609.973 111.412 608.385 111.175C606.797 110.937 605.271 110.389 603.895 109.562C606.729 110.193 609.695 109.794 612.262 108.438C614.828 107.081 616.829 104.855 617.905 102.158C618.98 99.4617 619.061 96.4702 618.133 93.7192C617.205 90.9683 615.328 88.6375 612.838 87.144C614.126 87.4295 615.359 87.9215 616.49 88.601Z" fill="#231F20"/>
<path opacity="0.2" d="M646.308 105.345C641.994 124.237 609.385 145.256 600.079 180.693C598.22 178.937 596.494 177.046 594.914 175.035C605.371 141.725 635.951 121.484 640.119 103.231C643.851 86.8946 633.37 71.3687 618.33 64.8101C636.535 69.3864 650.534 86.8453 646.308 105.345Z" fill="#231F20"/>
<path d="M917.684 56.5006C914.159 55.1014 910.393 54.4101 906.6 54.4663C902.808 54.5225 899.064 55.3251 895.582 56.8283C892.1 58.3315 888.948 60.5058 886.306 63.227C883.665 65.9483 881.585 69.1632 880.185 72.6883C874.301 87.5133 873.325 122.916 884.277 140.66C898.358 116.201 926.845 107.169 933.871 93.999C941.379 79.9262 932.509 62.3854 917.684 56.5006Z" fill="#6C63FF"/>
<path d="M905.829 89.4498C911.03 89.4498 915.247 85.2328 915.247 80.0309C915.247 74.829 911.03 70.6121 905.829 70.6121C900.627 70.6121 896.41 74.829 896.41 80.0309C896.41 85.2328 900.627 89.4498 905.829 89.4498Z" fill="white"/>
<path d="M877.489 152.664C880.896 152.664 883.658 149.902 883.658 146.495C883.658 143.088 880.896 140.326 877.489 140.326C874.082 140.326 871.32 143.088 871.32 146.495C871.32 149.902 874.082 152.664 877.489 152.664Z" fill="#6C63FF"/>
<path opacity="0.2" d="M915.12 75.5644C916.845 77.3684 917.784 79.7836 917.73 82.2794C917.676 84.7752 916.633 87.1473 914.831 88.8747C913.028 90.602 910.614 91.5432 908.118 91.4915C905.622 91.4397 903.249 90.3993 901.52 88.5988C903.499 89.6403 905.784 89.9435 907.967 89.4541C910.149 88.9647 912.086 87.7146 913.431 85.9276C914.775 84.1406 915.44 81.9334 915.306 79.701C915.172 77.4685 914.248 75.3566 912.7 73.7432C913.599 74.2157 914.417 74.8308 915.12 75.5644Z" fill="#231F20"/>
<path opacity="0.2" d="M933.899 94.0379C926.873 107.208 898.385 116.24 884.304 140.699C883.277 139.018 882.377 137.263 881.609 135.449C896.115 112.804 922.937 103.941 929.726 91.2161C935.802 79.8272 931.15 66.168 921.297 58.2527C933.904 65.3346 940.779 81.1416 933.899 94.0379Z" fill="#231F20"/>
<path d="M893.231 430C881.566 430 868.781 429.513 854.875 428.538C782.952 423.488 689.79 405.931 592.549 379.102C495.309 352.273 405.608 319.376 339.971 286.473C307.997 270.444 283.458 255.272 267.035 241.376C249.647 226.666 242.041 213.844 244.428 203.267C249.079 182.661 290.258 178.153 323.985 178L323.997 180.997C277.681 181.207 250.357 189.374 247.058 203.992C242.855 222.611 277.129 251.679 341.09 283.743C406.583 316.574 496.119 349.408 593.206 376.195C690.292 402.981 783.282 420.508 855.047 425.547C925.132 430.469 967.741 422.613 971.943 403.993C975.431 388.534 952.431 365.761 907.178 339.868L908.424 337.207C941.305 356.022 979.472 383.006 974.573 404.719C972.185 415.296 960.023 422.664 938.423 426.617C926.11 428.87 910.986 430 893.231 430Z" fill="#6C63FF"/>
<g clip-path="url(#clip0_0_1)">
<path opacity="0.1" d="M11.8501 499.97C29.2101 574.17 65.9601 638.31 124.03 669.44C244.74 734.05 516.95 700.72 720.1 662.44C822.756 643.161 915.937 589.896 984.64 511.22L11.8501 499.97Z" fill="#6C63FF"/>
<path opacity="0.1" d="M1077.2 150.71H965.73C963.176 150.71 960.727 149.695 958.921 147.889C957.115 146.083 956.1 143.634 956.1 141.08C956.1 138.526 957.115 136.077 958.921 134.271C960.727 132.465 963.176 131.45 965.73 131.45H985C982.498 131.369 980.126 130.319 978.385 128.521C976.644 126.723 975.671 124.318 975.671 121.815C975.671 119.312 976.644 116.907 978.385 115.109C980.126 113.311 982.498 112.261 985 112.18H971.24C968.739 112.099 966.366 111.049 964.625 109.251C962.884 107.453 961.911 105.048 961.911 102.545C961.911 100.042 962.884 97.6373 964.625 95.8392C966.366 94.041 968.739 92.9906 971.24 92.91H1029.42C1016.51 86.91 1001.42 82.64 984.03 80.4C825.39 60.03 768.75 73.51 748.77 87.4C724.12 104.5 696.62 117.08 667.23 123.14C569.35 143.33 386.3 167.63 220.39 115.36C137.93 89.36 76.6502 133.28 39.9102 206.64H1096.55C1095.17 185.32 1091.04 165.64 1083.46 148.4C1081.72 149.897 1079.5 150.717 1077.2 150.71V150.71Z" fill="#6C63FF"/>
<path opacity="0.1" d="M2.39022 345.1C-1.8911 388.252 -0.438468 431.78 6.71022 474.55L985.39 510.35C1012.64 479.009 1035.51 444.122 1053.39 406.64L2.39022 345.1ZM389.47 437.44H370.2C372.754 437.44 375.204 438.455 377.01 440.261C378.816 442.067 379.83 444.516 379.83 447.07C379.83 449.624 378.816 452.074 377.01 453.88C375.204 455.686 372.754 456.7 370.2 456.7H258.73C256.176 456.7 253.727 455.686 251.921 453.88C250.115 452.074 249.1 449.624 249.1 447.07C249.1 444.516 250.115 442.067 251.921 440.261C253.727 438.455 256.176 437.44 258.73 437.44H278C275.499 437.359 273.126 436.309 271.385 434.511C269.644 432.713 268.671 430.308 268.671 427.805C268.671 425.302 269.644 422.897 271.385 421.099C273.126 419.301 275.499 418.251 278 418.17H264.24C261.739 418.09 259.366 417.039 257.625 415.241C255.884 413.443 254.911 411.038 254.911 408.535C254.911 406.032 255.884 403.627 257.625 401.829C259.366 400.031 261.739 398.981 264.24 398.9H375.71C378.212 398.981 380.584 400.031 382.325 401.829C384.066 403.627 385.04 406.032 385.04 408.535C385.04 411.038 384.066 413.443 382.325 415.241C380.584 417.039 378.212 418.09 375.71 418.17H389.47C391.972 418.251 394.344 419.301 396.085 421.099C397.826 422.897 398.8 425.302 398.8 427.805C398.8 430.308 397.826 432.713 396.085 434.511C394.344 436.309 391.972 437.359 389.47 437.44V437.44Z" fill="#6C63FF"/>
<path opacity="0.1" d="M1096.6 207.28L28.1198 233.28C15.1198 266.69 6.5498 304.44 2.5498 343.61H1077.88C1084.9 320.612 1090.09 297.095 1093.41 273.28C1096.61 250.27 1097.89 228.01 1096.6 207.28ZM219.47 292.44H200.2C201.464 292.44 202.717 292.689 203.885 293.173C205.053 293.657 206.115 294.366 207.009 295.261C207.903 296.155 208.613 297.216 209.097 298.385C209.581 299.553 209.83 300.805 209.83 302.07C209.83 303.335 209.581 304.587 209.097 305.755C208.613 306.924 207.903 307.985 207.009 308.879C206.115 309.774 205.053 310.483 203.885 310.967C202.717 311.451 201.464 311.7 200.2 311.7H88.7298C86.1758 311.7 83.7263 310.685 81.9204 308.879C80.1144 307.074 79.0998 304.624 79.0998 302.07C79.0998 299.516 80.1144 297.067 81.9204 295.261C83.7263 293.455 86.1758 292.44 88.7298 292.44H108C105.498 292.359 103.126 291.309 101.385 289.511C99.6437 287.713 98.6702 285.308 98.6702 282.805C98.6702 280.302 99.6437 277.897 101.385 276.099C103.126 274.301 105.498 273.251 108 273.17H94.2398C91.7382 273.089 89.366 272.039 87.6248 270.241C85.8837 268.443 84.9102 266.038 84.9102 263.535C84.9102 261.032 85.8837 258.627 87.6248 256.829C89.366 255.031 91.7382 253.981 94.2398 253.9H205.71C208.211 253.981 210.584 255.031 212.325 256.829C214.066 258.627 215.039 261.032 215.039 263.535C215.039 266.038 214.066 268.443 212.325 270.241C210.584 272.039 208.211 273.089 205.71 273.17H219.47C221.971 273.251 224.344 274.301 226.085 276.099C227.826 277.897 228.799 280.302 228.799 282.805C228.799 285.308 227.826 287.713 226.085 289.511C224.344 291.309 221.971 292.359 219.47 292.44V292.44Z" fill="#6C63FF"/>
<path opacity="0.1" d="M560.83 831.76C753.484 831.76 909.66 823.307 909.66 812.88C909.66 802.453 753.484 794 560.83 794C368.177 794 212 802.453 212 812.88C212 823.307 368.177 831.76 560.83 831.76Z" fill="#6C63FF"/>
<path d="M853.21 703.18C853.21 703.18 858.7 710.37 850.67 721.18C842.64 731.99 836.02 741.18 838.67 747.95C838.67 747.95 850.78 727.8 860.67 727.52C870.56 727.24 864.05 715.3 853.21 703.18Z" fill="#6C63FF"/>
<path opacity="0.1" d="M853.21 703.18C853.684 703.876 854.061 704.633 854.33 705.43C863.95 716.74 869.07 727.29 859.83 727.55C851.21 727.8 840.88 743.2 838.41 747.09C838.489 747.392 838.586 747.689 838.7 747.98C838.7 747.98 850.81 727.83 860.7 727.55C870.59 727.27 864.05 715.3 853.21 703.18Z" fill="black"/>
<path d="M863.42 712.34C863.42 714.87 863.14 716.92 862.79 716.92C862.44 716.92 862.15 714.87 862.15 712.34C862.15 709.81 862.51 711 862.86 711C863.21 711 863.42 709.81 863.42 712.34Z" fill="#FFD037"/>
<path d="M866.92 715.36C864.7 716.57 862.77 717.3 862.6 716.99C862.43 716.68 864.1 715.45 866.32 714.24C868.54 713.03 867.66 713.91 867.83 714.24C868 714.57 869.14 714.15 866.92 715.36Z" fill="#FFD037"/>
<path d="M824.19 703.18C824.19 703.18 818.7 710.37 826.73 721.18C834.76 731.99 841.37 741.18 838.73 747.95C838.73 747.95 826.61 727.8 816.73 727.52C806.85 727.24 813.34 715.3 824.19 703.18Z" fill="#6C63FF"/>
<path opacity="0.1" d="M824.19 703.18C823.712 703.873 823.334 704.631 823.07 705.43C813.45 716.74 808.32 727.29 817.57 727.55C826.18 727.8 836.57 743.2 838.99 747.09C838.91 747.39 838.81 747.68 838.7 747.98C838.7 747.98 826.58 727.83 816.7 727.55C806.82 727.27 813.34 715.3 824.19 703.18Z" fill="black"/>
<path d="M813.98 712.34C813.98 714.87 814.26 716.92 814.61 716.92C814.96 716.92 815.25 714.87 815.25 712.34C815.25 709.81 814.89 711 814.54 711C814.19 711 813.98 709.81 813.98 712.34Z" fill="#FFD037"/>
<path d="M810.47 715.36C812.69 716.57 814.63 717.3 814.8 716.99C814.97 716.68 813.3 715.45 811.08 714.24C808.86 713.03 809.74 713.91 809.57 714.24C809.4 714.57 808.25 714.15 810.47 715.36Z" fill="#FFD037"/>
<path d="M815.73 747.04C815.73 747.04 831.09 746.56 835.73 743.27C840.37 739.98 859.36 736.03 860.51 741.27C861.66 746.51 883.59 767.56 866.25 767.7C848.91 767.84 825.96 765 821.34 762.19C816.72 759.38 815.73 747.04 815.73 747.04Z" fill="#A8A8A8"/>
<path opacity="0.2" d="M866.55 765.91C849.21 766.05 826.26 763.21 821.64 760.4C818.12 758.25 816.72 750.56 816.25 747.02H815.74C815.74 747.02 816.74 759.4 821.33 762.22C825.92 765.04 848.9 767.87 866.24 767.73C871.24 767.73 872.98 765.91 872.88 763.27C872.18 764.89 870.27 765.88 866.55 765.91Z" fill="black"/>
<path d="M269.23 752.66C271.065 751.162 272.404 749.144 273.07 746.87C273.56 744.58 272.58 741.87 270.39 740.98C267.93 740.04 265.3 741.75 263.3 743.47C261.3 745.19 259.03 747.16 256.42 746.79C257.762 745.575 258.767 744.032 259.334 742.312C259.902 740.593 260.014 738.756 259.66 736.98C259.546 736.244 259.235 735.553 258.76 734.98C257.39 733.52 254.92 734.14 253.28 735.29C248.08 738.95 246.63 746.02 246.6 752.37C246.08 750.08 246.52 747.69 246.51 745.37C246.5 743.05 245.85 740.37 243.87 739.14C242.641 738.484 241.263 738.16 239.87 738.2C237.53 738.11 234.93 738.35 233.33 740.05C231.33 742.18 231.86 745.74 233.59 748.05C235.32 750.36 237.94 751.86 240.35 753.47C242.29 754.623 243.944 756.199 245.19 758.08C245.332 758.347 245.452 758.624 245.55 758.91H260.2C263.478 757.243 266.516 755.141 269.23 752.66V752.66Z" fill="#6C63FF"/>
<path d="M152.8 768.44C152.8 768.44 138.74 720.73 155.43 685.62C162.535 670.934 164.682 654.34 161.55 638.33C160.005 630.747 157.765 623.323 154.86 616.15" stroke="#535461" stroke-width="2" stroke-miterlimit="10"/>
<path d="M165.21 593.95C165.21 599.8 154.63 616.76 154.63 616.76C154.63 616.76 144.04 599.76 144.04 593.95C144.125 591.199 145.277 588.589 147.253 586.673C149.229 584.757 151.873 583.685 154.625 583.685C157.377 583.685 160.022 584.757 161.997 586.673C163.973 588.589 165.125 591.199 165.21 593.95V593.95Z" fill="#6C63FF"/>
<path d="M182.71 626.34C179.54 631.25 161.43 639.73 161.43 639.73C161.43 639.73 161.76 619.73 164.94 614.83C166.503 612.557 168.89 610.984 171.595 610.444C174.3 609.905 177.109 610.442 179.424 611.941C181.739 613.441 183.378 615.784 183.991 618.473C184.605 621.162 184.145 623.985 182.71 626.34V626.34Z" fill="#6C63FF"/>
<path d="M181.95 681.69C176.73 684.32 156.82 682.5 156.82 682.5C156.82 682.5 167.2 665.41 172.42 662.78C173.665 662.121 175.029 661.716 176.432 661.591C177.835 661.465 179.249 661.621 180.591 662.048C181.933 662.476 183.177 663.167 184.249 664.082C185.32 664.996 186.199 666.115 186.833 667.373C187.467 668.631 187.844 670.002 187.941 671.408C188.038 672.813 187.854 674.224 187.399 675.557C186.944 676.89 186.228 678.12 185.292 679.173C184.357 680.226 183.22 681.082 181.95 681.69V681.69Z" fill="#6C63FF"/>
<path d="M171.94 723.44C167.24 726.92 147.31 728.44 147.31 728.44C147.31 728.44 154.65 709.85 159.31 706.37C160.42 705.461 161.702 704.786 163.08 704.387C164.458 703.989 165.903 703.874 167.326 704.051C168.75 704.227 170.123 704.691 171.362 705.414C172.601 706.137 173.68 707.105 174.534 708.258C175.388 709.41 175.998 710.725 176.329 712.121C176.659 713.517 176.703 714.965 176.456 716.378C176.21 717.792 175.679 719.14 174.896 720.342C174.113 721.544 173.093 722.574 171.9 723.37L171.94 723.44Z" fill="#6C63FF"/>
<path d="M139.21 640.86C143.4 644.93 162.94 649.16 162.94 649.16C162.94 649.16 158.15 629.75 153.94 625.67C152.952 624.66 151.771 623.858 150.467 623.311C149.164 622.764 147.764 622.484 146.351 622.486C144.937 622.489 143.538 622.775 142.237 623.326C140.936 623.878 139.758 624.685 138.773 625.699C137.789 626.713 137.017 627.914 136.504 629.231C135.99 630.548 135.746 631.954 135.785 633.367C135.824 634.78 136.145 636.171 136.73 637.458C137.315 638.745 138.151 639.902 139.19 640.86H139.21Z" fill="#6C63FF"/>
<path d="M128.12 689.83C133.34 692.46 153.25 690.64 153.25 690.64C153.25 690.64 142.87 673.56 137.65 670.92C135.15 669.723 132.281 669.554 129.658 670.448C127.035 671.343 124.867 673.23 123.619 675.705C122.372 678.18 122.145 681.046 122.986 683.687C123.828 686.327 125.671 688.533 128.12 689.83Z" fill="#6C63FF"/>
<path d="M123.88 738.91C128.58 742.38 148.5 743.91 148.5 743.91C148.5 743.91 141.17 725.32 136.5 721.84C134.238 720.331 131.483 719.75 128.805 720.217C126.127 720.684 123.731 722.163 122.113 724.347C120.495 726.532 119.779 729.255 120.114 731.953C120.448 734.651 121.807 737.117 123.91 738.84L123.88 738.91Z" fill="#6C63FF"/>
<path d="M165.21 593.95C165.21 599.8 154.63 616.76 154.63 616.76C154.63 616.76 144.04 599.76 144.04 593.95C144.125 591.199 145.277 588.589 147.253 586.673C149.229 584.757 151.873 583.685 154.625 583.685C157.377 583.685 160.022 584.757 161.997 586.673C163.973 588.589 165.125 591.199 165.21 593.95V593.95Z" fill="#6C63FF"/>
<path d="M182.71 626.34C179.54 631.25 161.43 639.73 161.43 639.73C161.43 639.73 161.76 619.73 164.94 614.83C166.503 612.557 168.89 610.984 171.595 610.444C174.3 609.905 177.109 610.442 179.424 611.941C181.739 613.441 183.378 615.784 183.991 618.473C184.605 621.162 184.145 623.985 182.71 626.34V626.34Z" fill="#6C63FF"/>
<path d="M181.95 681.69C176.73 684.32 156.82 682.5 156.82 682.5C156.82 682.5 167.2 665.41 172.42 662.78C173.665 662.121 175.029 661.716 176.432 661.591C177.835 661.465 179.249 661.621 180.591 662.048C181.933 662.476 183.177 663.167 184.249 664.082C185.32 664.996 186.199 666.115 186.833 667.373C187.467 668.631 187.844 670.002 187.941 671.408C188.038 672.813 187.854 674.224 187.399 675.557C186.944 676.89 186.228 678.12 185.292 679.173C184.357 680.226 183.22 681.082 181.95 681.69V681.69Z" fill="#6C63FF"/>
<path d="M171.94 723.44C167.24 726.92 147.31 728.44 147.31 728.44C147.31 728.44 154.65 709.85 159.31 706.37C160.42 705.461 161.702 704.786 163.08 704.387C164.458 703.989 165.903 703.874 167.326 704.051C168.75 704.227 170.123 704.691 171.362 705.414C172.601 706.137 173.68 707.105 174.534 708.258C175.388 709.41 175.998 710.725 176.329 712.121C176.659 713.517 176.703 714.965 176.456 716.378C176.21 717.792 175.679 719.14 174.896 720.342C174.113 721.544 173.093 722.574 171.9 723.37L171.94 723.44Z" fill="#6C63FF"/>
<path d="M139.21 640.86C143.4 644.93 162.94 649.16 162.94 649.16C162.94 649.16 158.15 629.75 153.94 625.67C152.952 624.66 151.771 623.858 150.467 623.311C149.164 622.764 147.764 622.484 146.351 622.486C144.937 622.489 143.538 622.775 142.237 623.326C140.936 623.878 139.758 624.685 138.773 625.699C137.789 626.713 137.017 627.914 136.504 629.231C135.99 630.548 135.746 631.954 135.785 633.367C135.824 634.78 136.145 636.171 136.73 637.458C137.315 638.745 138.151 639.902 139.19 640.86H139.21Z" fill="#6C63FF"/>
<path d="M128.12 689.83C133.34 692.46 153.25 690.64 153.25 690.64C153.25 690.64 142.87 673.56 137.65 670.92C135.15 669.723 132.281 669.554 129.658 670.448C127.035 671.343 124.867 673.23 123.619 675.705C122.372 678.18 122.145 681.046 122.986 683.687C123.828 686.327 125.671 688.533 128.12 689.83Z" fill="#6C63FF"/>
<path d="M123.88 738.91C128.58 742.38 148.5 743.91 148.5 743.91C148.5 743.91 141.17 725.32 136.5 721.84C134.238 720.331 131.483 719.75 128.805 720.217C126.127 720.684 123.731 722.163 122.113 724.347C120.495 726.532 119.779 729.255 120.114 731.953C120.448 734.651 121.807 737.117 123.91 738.84L123.88 738.91Z" fill="#6C63FF"/>
<path d="M119.55 765.44C119.55 765.44 136.67 762.04 141.23 757.51C145.79 752.98 166.33 745.05 168.61 750.71C170.89 756.37 199.41 775.63 180.01 779.03C160.61 782.43 134.38 783.56 128.68 781.29C122.98 779.02 119.55 765.44 119.55 765.44Z" fill="#A8A8A8"/>
<path opacity="0.2" d="M180.04 776.91C160.65 780.31 134.41 781.44 128.71 779.18C124.37 777.45 121.35 769.18 120.16 765.31L119.55 765.44C119.55 765.44 122.98 779.03 128.68 781.29C134.38 783.55 160.62 782.42 180.01 779.03C185.61 778.03 187.21 775.74 186.61 772.83C186.16 774.72 184.21 776.18 180.04 776.91Z" fill="black"/>
<path d="M438.95 408.5C438.95 408.5 435.6 435.95 462.17 438.76L466.17 419.76L457.8 408.5L445.81 404.44L438.95 408.5Z" fill="#6C63FF"/>
<path opacity="0.1" d="M445.81 404.44L438.95 408.49C438.95 408.49 435.6 435.94 462.17 438.75" fill="black"/>
<path d="M487.16 253.29C487.16 253.29 469.23 254.39 451.25 257.37C449.41 257.683 447.58 258.017 445.76 258.37C444.7 258.57 443.66 258.78 442.62 259.01C433.2 260.95 424.62 263.47 419.62 266.69C413.62 270.54 411.62 260.17 411.43 245.76C411.35 240.69 411.52 235.13 411.79 229.51C412.14 223.01 412.65 216.43 413.19 210.51C414.38 197.39 415.75 187.19 415.75 187.19C415.75 187.19 422.03 187.19 430.42 186.9L433.12 186.8C435.75 186.7 438.54 186.56 441.35 186.39C442.68 186.32 444.02 186.24 445.35 186.14C450.67 185.76 455.92 185.22 460.35 184.52C465.07 183.76 468.9 182.8 470.98 181.52C480.48 175.86 487.16 253.29 487.16 253.29Z" fill="#F8BDC5"/>
<path d="M567.05 354.65L563.55 377.88C563.55 377.88 555.92 387.38 556.92 392.66C557.92 397.94 566.72 631.28 566.72 631.28C566.72 631.28 583.97 729.82 577.98 742.49C571.99 755.16 577.63 784.73 577.63 784.73L613.53 779.1L625.53 348.31L567.05 354.65Z" fill="#474463"/>
<path opacity="0.1" d="M567.05 354.65L563.55 377.88C563.55 377.88 555.92 387.38 556.92 392.66C557.92 397.94 566.72 631.28 566.72 631.28C566.72 631.28 583.97 729.82 577.98 742.49C571.99 755.16 577.63 784.73 577.63 784.73L613.53 779.1L625.53 348.31L567.05 354.65Z" fill="black"/>
<path d="M645.494 807.567C644.244 808.693 644.477 811.843 644.952 814.512C645.367 816.808 645.96 818.75 645.96 818.75L646.525 832.328C646.525 832.328 602.63 826.555 578.304 819.565C568.272 816.68 565.327 813.733 565.77 811.259C566.42 807.737 573.937 805.145 577.697 804.988C581.287 804.839 592.495 801.241 601.673 798.091C608.888 795.625 614.874 793.438 614.874 793.438C614.874 793.438 647.808 805.47 645.494 807.567Z" fill="#575988"/>
<path opacity="0.1" d="M646.24 790.71C645.1 792.6 645.19 798.16 645.51 802.89C636.98 798.89 610.57 773.27 608.08 770.83C614.51 767.02 619.85 763.61 619.85 763.61C619.85 763.61 648.35 787.19 646.24 790.71Z" fill="black"/>
<path d="M725.08 370.84L715.93 404.63C715.93 404.63 710.65 414.83 709.93 419.76C709.21 424.69 704.3 432.08 704.3 432.08C702.078 436.944 700.88 442.213 700.78 447.56C700.43 457.07 708.21 505.61 700.78 513L692.5 531C692.5 531 683.61 551.42 688.5 558.5C693.39 565.58 688.5 578.5 688.5 578.5C688.5 578.5 688.27 590.72 692.5 596C696.73 601.28 688.5 617.5 688.5 617.5C688.5 617.5 682.83 639.68 684.59 642.5C686.35 645.32 684.59 690.5 684.59 690.5L680.74 733.5C680.74 733.5 675.62 762.2 673.5 771C671.38 779.8 668 800.61 668 800.61C668 800.61 655.02 801.66 648.33 800.61C641.64 799.56 609.5 789 609.5 789L613.84 660.87C613.84 660.87 617.71 615.47 615.25 606.67C612.79 597.87 611.03 553.88 611.03 553.88L606.1 484.55L556.88 407.12C556.88 407.12 553.31 384.59 563.51 377.91L565.36 365.74L567.03 354.68L625.46 348.34L725.35 322C725.35 322 729.89 324.89 733.5 335.5C735.97 342.65 728.77 357.21 725.08 370.84Z" fill="#474463"/>
<path d="M569.55 406.44C569.55 406.44 528.02 457.44 529.78 443.19C530.88 434.24 525.2 423.31 520.78 416.4C518.17 412.29 516.01 409.6 516.01 409.6C516.01 409.6 541.35 363.15 542.76 369.48C543.21 371.48 546.14 376.07 549.91 381.31C557.86 392.29 569.55 406.44 569.55 406.44Z" fill="#FFC1C8"/>
<path opacity="0.3" d="M646 832.371V834C646 834 605.044 829.645 582.495 825.059C573.196 823.166 570.488 816.907 571 815.5C583.449 817.422 606.667 825.586 613.682 827.238C619.639 828.638 635.035 830.857 646 832.371Z" fill="white"/>
<path d="M596.46 811.66C596.376 813.134 596.193 814.601 595.91 816.05C595.91 816.05 557.03 817.44 536.79 814.44C531.2 813.61 528.04 811.82 526.47 809.68C525.769 808.669 525.335 807.497 525.207 806.274C525.079 805.05 525.263 803.814 525.74 802.68C525.964 802.028 526.248 801.399 526.59 800.8C528.1 798.16 530.42 796.29 531.69 796.54C535.21 797.25 541.25 790.03 541.25 790.03C540.77 785.62 547.7 784.03 548.78 784.75C548.972 784.898 549.2 784.994 549.441 785.029C549.682 785.063 549.927 785.034 550.154 784.946C550.38 784.857 550.58 784.712 550.733 784.523C550.887 784.335 550.989 784.11 551.03 783.87C551.1 783.54 551.12 781.95 551.12 780.09C551.12 776.99 551.03 773.09 551.03 773.09L590.11 777.84L591.66 785.31C593.08 791.97 595.06 801.12 595.91 804.25C596.501 806.673 596.687 809.177 596.46 811.66Z" fill="#474463"/>
<path opacity="0.1" d="M596.46 811.66C596.376 813.134 596.193 814.601 595.91 816.05C595.91 816.05 557.03 817.44 536.79 814.44C531.2 813.61 528.04 811.82 526.47 809.68C531.66 809.37 538.41 809.2 542.59 810.22C548.55 811.7 584.2 811.7 596.46 811.66Z" fill="black"/>
<path d="M526.55 800.78C526.592 801.141 526.536 801.507 526.386 801.838C526.236 802.169 525.999 802.454 525.7 802.66C520.78 806.46 497.17 802.33 497.17 802.33C497.17 802.33 448.93 799.33 441.72 794.41C441.069 793.982 440.525 793.411 440.13 792.74C437.13 787.32 447.99 778.22 448.93 778.22C449.87 778.22 462.84 776.45 463.71 776.28C469.71 775.07 475.71 771.35 476.71 772.41C477.71 773.47 482.71 771 485.15 770.65C486.04 770.52 486.45 769.26 486.6 767.65C486.74 765.472 486.667 763.284 486.38 761.12L524.91 771.49L525.25 777.63L526.36 798.07L526.5 800.58C526.524 800.645 526.541 800.712 526.55 800.78Z" fill="#474463"/>
<path opacity="0.1" d="M497.21 802.33C497.21 802.33 448.97 799.33 441.76 794.41C441.109 793.982 440.565 793.411 440.17 792.74C449.94 793.54 466.23 794.89 469.17 795.64C473.4 796.64 497.17 798.1 497.17 798.1H526.4L526.54 800.61C527.81 807.69 497.21 802.33 497.21 802.33Z" fill="black"/>
<path d="M466.75 421.17C466.75 421.17 464.53 425.17 461.19 431.11C453.19 445.23 438.8 470.26 432.61 478.18C423.81 489.44 424.52 478.89 415.01 455.31C407.95 437.77 429.68 417.7 441.3 408.58C445.3 405.41 448.1 403.58 448.1 403.58L466.75 421.17Z" fill="#F8BDC5"/>
<path d="M509.33 448.27C509.33 448.27 480.12 450.73 474.49 452.49C468.86 454.25 444.58 453.19 442.49 452.49C440.4 451.79 398.84 461.29 417.85 470.79C436.86 480.29 448.85 470.79 448.85 470.79C448.85 470.79 473.49 469.38 479.85 473.26C486.21 477.14 509.41 475.02 509.41 475.02L509.33 448.27Z" fill="#FFC1C8"/>
<path opacity="0.1" d="M448.65 232.88C452.25 242.09 450 250.11 445.76 258.34C435.14 260.34 425.15 263.09 419.59 266.66C403.75 276.87 415.72 187.12 415.72 187.12C415.72 187.12 423.38 187.12 433.09 186.73C430.15 200.15 441.29 214.08 448.65 232.88Z" fill="black"/>
<path d="M449.55 230.88C449.531 245.621 444.087 259.839 434.255 270.822C424.423 281.805 410.893 288.784 396.244 290.429C381.595 292.073 366.854 288.268 354.832 279.738C342.809 271.209 334.348 258.552 331.061 244.183C327.774 229.813 329.891 214.736 337.01 201.828C344.129 188.92 355.75 179.085 369.657 174.197C383.563 169.31 398.783 169.713 412.412 175.33C426.04 180.946 437.125 191.383 443.55 204.65C447.51 212.826 449.561 221.795 449.55 230.88V230.88Z" fill="#F8BDC5"/>
<path opacity="0.1" d="M725.37 339.95C723.47 342.715 720.625 344.689 717.37 345.5C703.64 349.37 606.85 372.6 600.52 371.19C594.93 369.95 570.94 366.5 565.41 365.71L567.08 354.65L625.51 348.31L714.9 325.09C714.9 325.09 721.76 329.34 725.37 339.95Z" fill="black"/>
<path opacity="0.1" d="M487.16 253.29C475.72 253.976 464.322 255.244 453.01 257.09C453.171 256.575 453.15 256.021 452.95 255.52L476.35 252.63C476.35 252.63 472.93 197.63 460.35 184.45C465.07 183.69 468.9 182.73 470.98 181.45C480.48 175.86 487.16 253.29 487.16 253.29Z" fill="black"/>
<path d="M456.55 170.69C456.55 170.69 477.32 168.82 480.13 165.3C482.94 161.78 503.01 160.73 503.01 160.73C503.01 160.73 512.86 158.97 515.01 156.5C517.16 154.03 570.61 150.87 575.89 153.69C581.17 156.51 586.1 158.26 589.27 158.62C592.44 158.98 617.07 176.56 619.53 176.56C621.99 176.56 689.53 240.27 689.53 240.27C689.53 240.27 696.53 256.46 699.39 257.16C702.25 257.86 739 330.72 739 330.72C739 330.72 731.07 337.4 717.35 341.28C703.63 345.16 606.83 368.38 600.5 366.97C594.17 365.56 564.25 361.34 564.25 361.34C564.25 361.34 564.6 361.34 563.9 357.47C563.2 353.6 562.14 354.65 563.54 351.13C564.94 347.61 566.36 347.96 564.6 345.85C562.84 343.74 564.6 342.68 558.97 339.16C553.34 335.64 546.97 331.77 546.65 330.72C546.33 329.67 541.37 322.62 538.91 322.27C536.45 321.92 467.46 302.56 467.46 302.56L451.27 297.28C451.27 297.28 443.53 292 445.27 288.84C447.01 285.68 453 257.09 453 257.09L477.75 254.04C477.75 254.04 474.06 194.44 460.2 184.44C446.34 174.44 456.55 170.69 456.55 170.69Z" fill="#C50512"/>
<path opacity="0.1" d="M466.75 421.17C466.75 421.17 464.53 425.17 461.19 431.11C460.67 412.75 447.83 409.19 441.3 408.58C445.3 405.41 448.1 403.58 448.1 403.58L466.75 421.17Z" fill="black"/>
<path d="M449.55 287.78L451.25 297.28C451.25 297.28 457.94 305.38 457.94 307.84C457.94 310.3 465.68 317.34 467.8 321.21C469.92 325.08 477.3 325.79 474.48 332.48C471.66 339.17 455.48 390.2 455.48 390.2L438.94 408.5C438.94 408.5 466.39 406.03 462.16 438.76L497.71 407.76L525.55 357.11C525.55 357.11 498.45 305.73 497.4 301.51C496.35 297.29 449.55 287.78 449.55 287.78Z" fill="#C50512"/>
<path opacity="0.1" d="M531.86 305.38C531.86 305.38 554.38 289.54 554.38 287.78C554.38 286.02 531.86 305.38 531.86 305.38Z" fill="black"/>
<path opacity="0.1" d="M569.55 325.09C569.55 325.09 581.55 322.27 582.55 315.94C583.55 309.61 569.55 325.09 569.55 325.09Z" fill="black"/>
<path opacity="0.1" d="M579.37 341.28C579.37 341.28 596.27 332.91 595.56 331.46C594.85 330.01 579.37 341.28 579.37 341.28Z" fill="black"/>
<path opacity="0.1" d="M669.82 287.67C669.82 287.67 662.82 292.24 664.9 296.52C666.98 300.8 669.82 287.67 669.82 287.67Z" fill="black"/>
<path opacity="0.1" d="M690.55 289.54C690.55 289.54 670.61 308.54 675.12 308.9C679.63 309.26 690.55 289.54 690.55 289.54Z" fill="black"/>
<path opacity="0.1" d="M645.19 584.12C645.19 584.12 670.88 589.05 671.58 590.81C672.28 592.57 645.19 584.12 645.19 584.12Z" fill="black"/>
<path opacity="0.1" d="M654.34 601.01C654.34 601.01 668.06 609.46 668.41 611.92C668.76 614.38 654.34 601.01 654.34 601.01Z" fill="black"/>
<path opacity="0.1" d="M651.17 620.02C651.17 620.02 653.28 629.52 656.8 630.93C660.32 632.34 651.17 620.02 651.17 620.02Z" fill="black"/>
<path opacity="0.1" d="M443.61 204.34C443.61 204.44 443.61 204.55 443.56 204.65C443.08 207.78 441.8 211.17 438.86 212.21C437.084 212.71 435.185 212.535 433.53 211.72C428.53 209.53 424.08 204.27 418.74 205.54C416.2 206.14 414.42 208.07 413.16 210.44C412.286 212.146 411.615 213.948 411.16 215.81C410.16 219.73 409.36 223.99 410.89 227.72C411.142 228.33 411.443 228.919 411.79 229.48C413.21 231.75 415.21 233.68 416.61 235.97C418.35 238.83 418.8 243.12 416.09 245.08C415.41 245.527 414.639 245.817 413.833 245.929C413.027 246.042 412.206 245.974 411.43 245.73C409.445 245.106 407.536 244.261 405.74 243.21C402.2 241.36 397.74 240.21 394.38 242.35C393.22 243.07 392.29 244.11 391.18 244.87C388.873 246.299 386.136 246.869 383.45 246.48C377.09 245.83 374.71 241.8 369.85 238.68C366.29 236.38 358.85 235.4 356.73 240.1C355.37 243.1 357.39 246.88 356.06 249.94C354.73 253 350.5 253.94 348.54 256.78C345.96 260.52 348.36 265.93 346.47 270.08C346.18 270.723 345.792 271.317 345.32 271.84C334.723 260.421 328.967 245.338 329.262 229.763C329.557 214.187 335.88 199.333 346.902 188.324C357.924 177.315 372.786 171.009 388.362 170.732C403.937 170.456 419.014 176.23 430.42 186.84L433.12 186.74C435.75 186.64 438.54 186.5 441.35 186.33C442.014 187.737 442.534 189.208 442.9 190.72C443.988 195.175 444.229 199.796 443.61 204.34V204.34Z" fill="black"/>
<path d="M355.3 238.7C353.93 241.7 355.95 245.48 354.63 248.53C353.31 251.58 349.05 252.53 347.11 255.37C344.52 259.12 346.92 264.53 345.04 268.67C342.88 273.4 336.36 274.14 331.36 272.76C327.089 271.54 323.169 269.321 319.924 266.287C316.679 263.253 314.203 259.49 312.7 255.31C309.31 245.66 311.5 235.04 310.62 224.85C310.245 220.483 309.304 216.184 307.82 212.06C306.37 208.06 304.39 204.12 303.92 199.87C303.584 196.264 304.336 192.64 306.079 189.465C307.822 186.291 310.477 183.711 313.7 182.06C317.82 180.06 322.89 179.49 325.89 176.06C328.19 173.4 328.68 169.69 329.75 166.34C332.64 157.34 341.27 150 350.75 150.09C358.33 150.15 365.75 154.62 373.16 152.86C377.35 151.86 381.16 148.86 385.48 149.29C387.549 149.615 389.532 150.353 391.31 151.46C402.812 157.672 413.756 164.866 424.02 172.96C426.143 174.789 428.468 176.369 430.95 177.67C432.548 178.293 434.108 179.011 435.62 179.82C438.85 181.82 440.54 185.63 441.46 189.33C442.565 193.782 442.816 198.404 442.2 202.95C441.76 206.16 440.5 209.76 437.45 210.83C435.668 211.327 433.766 211.145 432.11 210.32C427.11 208.15 422.67 202.89 417.33 204.15C412.97 205.15 410.87 210.09 409.73 214.42C408.73 218.34 407.91 222.6 409.46 226.34C410.74 229.44 413.46 231.71 415.17 234.58C416.88 237.45 417.37 241.74 414.65 243.69C411.65 245.86 407.58 243.55 404.29 241.83C400.77 239.98 396.29 238.83 392.94 240.96C391.79 241.68 390.86 242.72 389.74 243.49C387.431 244.905 384.701 245.471 382.02 245.09C375.65 244.44 373.27 240.41 368.42 237.29C364.85 234.97 357.43 233.99 355.3 238.7Z" fill="#474463"/>
<path opacity="0.1" d="M549.92 381.26C549.65 382.76 547.59 382.93 547.17 384.39C543.17 398.5 534.37 411.19 520.79 416.39C518.18 412.28 516.02 409.59 516.02 409.59C516.02 409.59 541.36 363.14 542.77 369.47C543.22 371.44 546.15 376.02 549.92 381.26Z" fill="black"/>
<path d="M550.67 371.54C550.672 380.729 547.949 389.713 542.845 397.354C537.741 404.996 530.486 410.953 521.996 414.47C513.507 417.988 504.165 418.91 495.152 417.118C486.139 415.327 477.86 410.903 471.361 404.406C464.863 397.908 460.437 389.63 458.643 380.618C456.85 371.605 457.769 362.263 461.286 353.773C464.802 345.283 470.757 338.026 478.397 332.921C486.038 327.815 495.021 325.09 504.21 325.09C510.317 325.067 516.367 326.253 522.014 328.58C527.66 330.906 532.79 334.326 537.109 338.644C541.427 342.962 544.849 348.091 547.176 353.737C549.504 359.383 550.691 365.433 550.67 371.54Z" fill="#FFC1C8"/>
<path opacity="0.1" d="M524.99 771.52L525.33 777.66C521.26 778.56 513.52 779.74 509.01 776.98C503.18 773.41 494.57 772.54 486.68 767.68C486.821 765.501 486.747 763.314 486.46 761.15L524.99 771.52Z" fill="black"/>
<path d="M584.65 645.71C582.54 651.34 581.48 652.4 583.6 655.21C585.72 658.02 584.65 672.81 581.29 674.21C577.93 675.61 565.29 684.06 565.29 684.06C565.29 684.06 572.29 693.21 572.5 697.06C572.684 699.52 573.635 701.86 575.22 703.75C575.22 703.75 586.06 726.98 588.22 734.37C590.38 741.76 592.36 753.37 592.36 753.37C592.36 753.37 588.57 763.93 591.19 769.92C593.81 775.91 591.19 784.7 591.19 784.7C591.19 784.7 553.38 780.83 549.19 775.86C545 770.89 547.79 759.71 547.79 759.71C546.926 754.728 545.135 749.952 542.51 745.63C538.28 738.94 543.51 731.91 542.51 731.55C541.51 731.19 538.28 727.33 535.1 721C531.92 714.67 529.94 717.12 529.94 717.12C529.94 717.12 534.06 752.67 529.94 755.84C525.82 759.01 525.26 757.6 526.32 761.84C527.141 765.91 527.729 770.023 528.08 774.16C528.08 774.16 515.41 778.03 509.08 774.16C502.75 770.29 493.22 769.58 484.85 763.6C476.48 757.62 488.64 747.41 490.75 746C492.86 744.59 490.05 724.18 490.05 724.18L487.23 704.12C487.23 704.12 496.73 706.23 493.61 698.49C490.49 690.75 486.88 664 485.12 659.78C483.36 655.56 491.12 649.92 490.05 647.11C488.98 644.3 494.62 628.11 494.62 628.11C494.62 628.11 494.98 614.74 498.49 612.23C499.83 611.29 500.7 608.37 501.28 605.14C501.895 601.328 502.259 597.48 502.37 593.62C502.37 593.62 582.96 587.99 595.98 595.73C601.84 599.21 601.43 605.62 598.98 612.11C595.98 620.03 589.82 628.11 588.27 631.04C585.36 636.44 586.76 640.08 584.65 645.71Z" fill="#575988"/>
<path opacity="0.1" d="M598.88 612.11C588.88 614.92 575.56 619.05 573.39 621.42C569.87 625.3 557.9 599.6 557.9 599.6C557.9 599.6 558.61 618.92 542.77 610.84C529.06 603.84 506.93 604.76 501.21 605.14C501.825 601.328 502.189 597.48 502.3 593.62C502.3 593.62 582.89 587.99 595.91 595.73C601.77 599.21 601.36 605.62 598.88 612.11Z" fill="black"/>
<path d="M557.9 399.35C557.9 399.35 564.9 390.9 566.35 394.07C567.8 397.24 576.06 403.57 576.06 403.57C576.06 403.57 578.43 410.96 582.6 412.02C586.77 413.08 618.09 455.31 618.09 455.31L606.82 478.18L597.67 533.79C597.67 533.79 598.07 542.59 595.58 545.79C593.09 548.99 583.58 548.25 587.99 552.12C592.4 555.99 598.73 559.51 602.25 577.12C605.77 594.73 609.99 604.92 609.99 604.92C609.99 604.92 576.91 613.37 573.39 617.24C569.87 621.11 557.9 595.42 557.9 595.42C557.9 595.42 558.61 614.73 542.77 606.66C526.93 598.59 499.83 601.05 499.83 601.05V580.25C499.83 580.25 505.11 572.15 502.3 566.52C499.49 560.89 504.22 550.33 504.22 550.33C504.22 550.33 502.65 539.42 499.83 533.09C497.01 526.76 498.07 496.84 498.07 496.84C498.07 496.84 495.93 477.48 497.88 467.62C499.535 459.074 502.457 450.823 506.55 443.14C510.42 435.6 512.87 428.56 511.82 425.74C510.77 422.92 521.11 416.82 521.11 416.82L526.84 426.09L528.3 431.63C528.3 431.63 558.61 409.91 557.9 399.35Z" fill="#DCE6F2"/>
<path d="M608.55 448.27C608.55 448.27 628.26 467.62 630.37 470.79C632.48 473.96 639.55 490.44 630.4 495.44C621.25 500.44 585.4 508.15 581.84 505.49C578.28 502.83 556.84 508.49 556.84 508.49C556.84 508.49 520.98 517.29 528.72 502.86C536.46 488.43 554.77 490.86 554.77 490.86C554.77 490.86 584.35 490.81 587.51 487.86C590.67 484.91 614.51 478.58 609.11 465.54C603.71 452.5 608.55 448.27 608.55 448.27Z" fill="#FFC1C8"/>
<path opacity="0.1" d="M591.66 785.33C591.39 786.7 591.14 787.54 591.14 787.54C591.14 787.54 560.09 784.36 551.14 780.07C551.14 776.97 551.05 773.07 551.05 773.07L590.13 777.82L591.66 785.33Z" fill="black"/>
<path opacity="0.1" d="M550.67 534.85C550.67 534.85 504.76 574.62 509.33 574.62C513.9 574.62 550.67 534.85 550.67 534.85Z" fill="black"/>
<path opacity="0.1" d="M581.29 551.04C581.29 551.04 566.7 554.55 569.52 556.67C572.34 558.79 581.29 551.04 581.29 551.04Z" fill="black"/>
<path opacity="0.1" d="M529.84 454.6C529.84 454.6 548.05 456.23 544.84 461.93C541.63 467.63 529.84 454.6 529.84 454.6Z" fill="black"/>
<path opacity="0.1" d="M518.49 625.53C518.49 625.53 516.02 632.69 518.49 636.53C520.96 640.37 518.49 649.53 518.49 649.53V681.53C518.49 681.53 518.15 704.76 526.58 712.85L518.49 625.53Z" fill="black"/>
<path opacity="0.1" d="M494.38 725.25C494.38 725.25 499.3 732.46 500.01 735.1C500.72 737.74 494.38 725.25 494.38 725.25Z" fill="black"/>
<path opacity="0.1" d="M495.61 710.82C495.61 710.82 507.05 708.71 508.81 709.94C510.57 711.17 495.61 710.82 495.61 710.82Z" fill="black"/>
<path opacity="0.1" d="M492.27 753.93C492.27 753.93 488.92 754.28 495.61 757.93C502.3 761.58 515.32 766.2 515.49 764.62C515.66 763.04 492.27 753.93 492.27 753.93Z" fill="black"/>
<path opacity="0.1" d="M541.24 718.91C542.42 718.91 557.15 718.03 556.3 720.32C555.45 722.61 541.24 718.91 541.24 718.91Z" fill="black"/>
<path opacity="0.1" d="M561.25 698.32C561.25 698.32 564.59 692.52 565.82 694.98C567.05 697.44 561.25 698.32 561.25 698.32Z" fill="black"/>
<path opacity="0.1" d="M550.67 371.54C550.675 375.859 550.076 380.157 548.89 384.31C546.95 386.07 543.6 386.09 541.21 384.78C538.41 383.24 536.58 380.44 534.76 377.78C532.94 375.12 530.87 372.46 527.89 371.32C524.12 369.9 519.82 371.32 516.54 373.68C513.26 376.04 510.64 379.16 507.54 381.68C504.44 384.2 500.49 386.24 496.54 385.62C493.99 385.23 491.73 383.79 489.54 382.4C486.54 380.51 483.32 377.57 480.03 376.3C476.74 375.03 474.03 377.3 470.9 377.3C468.41 378.2 465.7 380.25 466.2 382.84C466.468 383.801 466.901 384.708 467.48 385.52C468.485 387.5 468.881 389.733 468.62 391.937C468.358 394.142 467.45 396.22 466.01 397.91C461.865 391.917 459.187 385.034 458.194 377.816C457.2 370.597 457.918 363.247 460.29 356.357C462.662 349.468 466.621 343.233 471.847 338.156C477.073 333.078 483.421 329.302 490.376 327.131C497.331 324.96 504.7 324.455 511.886 325.657C519.073 326.86 525.876 329.735 531.746 334.052C537.615 338.369 542.388 344.006 545.677 350.508C548.966 357.009 550.68 364.194 550.68 371.48L550.67 371.54Z" fill="black"/>
<path d="M470.89 375.95C468.4 376.85 465.69 378.9 466.18 381.5C466.458 382.456 466.894 383.358 467.47 384.17C470.39 389.38 467.92 396.86 462.47 399.28C461.616 399.725 460.64 399.879 459.69 399.72C458.937 399.486 458.251 399.074 457.69 398.52C454.759 395.9 452.738 392.415 451.92 388.57C451.06 384.57 451.59 380.33 451.15 376.22C450.71 372.11 449.3 368.06 448.81 363.92C448.463 361.874 448.681 359.772 449.44 357.84C450.099 356.565 450.949 355.399 451.96 354.38C454.77 351.25 457.7 348.05 459.11 344.08C461.34 337.76 459.72 329.71 464.6 325.08C466.86 322.96 470.02 322.17 472.82 320.83C475.456 319.43 477.98 317.829 480.37 316.04C489.42 309.82 500.42 305.04 511.18 307.24C515.479 308.281 519.596 309.967 523.39 312.24C530.438 316.125 537.13 320.622 543.39 325.68C546.097 327.682 548.461 330.11 550.39 332.87C551.827 335.233 552.861 337.818 553.45 340.52C554.887 346.415 555.084 352.544 554.03 358.52C553.03 364.38 550.76 370.07 550.67 376.02C550.67 378.02 550.83 380.18 549.8 381.9C548.15 384.64 544.06 384.9 541.26 383.38C538.46 381.86 536.63 379.04 534.82 376.38C533.01 373.72 530.93 371.06 527.95 369.93C524.18 368.5 519.88 369.93 516.6 372.28C513.32 374.63 510.71 377.76 507.6 380.28C504.49 382.8 500.6 384.84 496.6 384.22C494.05 383.83 491.79 382.4 489.6 381.01C486.6 379.11 483.38 376.17 480.1 374.91C476.82 373.65 474.01 375.95 470.89 375.95Z" fill="#794F6A"/>
<path d="M577.61 448.27C577.61 448.27 525.88 496.13 536.43 520.06C546.98 543.99 593.43 501.76 593.43 501.76L609.99 463.44L577.61 448.27Z" fill="#F8BDC5"/>
<g opacity="0.1">
<path d="M462.45 396.44C461.599 396.885 460.627 397.039 459.68 396.88C458.924 396.648 458.236 396.233 457.68 395.67C454.749 393.053 452.725 389.572 451.9 385.73C451.05 381.68 451.58 377.48 451.14 373.37C450.7 369.26 449.28 365.22 448.8 361.07C448.8 360.87 448.8 360.66 448.75 360.45C448.642 361.595 448.658 362.749 448.8 363.89C449.28 368.03 450.7 372.03 451.14 376.19C451.58 380.35 451.05 384.5 451.9 388.54C452.722 392.386 454.746 395.871 457.68 398.49C458.239 399.046 458.926 399.458 459.68 399.69C460.627 399.849 461.599 399.695 462.45 399.25C466.75 397.34 469.18 392.31 468.61 387.71C468.402 389.566 467.728 391.34 466.651 392.866C465.574 394.392 464.129 395.621 462.45 396.44V396.44Z" fill="black"/>
<path d="M553.96 355.69C552.96 361.55 550.69 367.24 550.61 373.19C550.61 375.19 550.77 377.35 549.73 379.07C548.09 381.81 544 382.07 541.2 380.55C538.4 379.03 536.57 376.22 534.75 373.55C532.93 370.88 530.87 368.23 527.88 367.1C524.12 365.68 519.82 367.1 516.54 369.46C513.26 371.82 510.64 374.93 507.54 377.46C504.44 379.99 500.49 382.02 496.54 381.41C493.99 381.01 491.73 379.58 489.54 378.19C486.54 376.29 483.32 373.36 480.04 372.09C476.76 370.82 474.04 373.09 470.91 373.09C468.42 374 465.71 376.04 466.19 378.65C466.251 378.932 466.342 379.207 466.46 379.47C467.44 377.763 469.03 376.491 470.91 375.91C474.03 375.91 476.79 373.67 480.04 374.91C483.29 376.15 486.57 379.11 489.54 381.01C491.71 382.4 493.97 383.83 496.54 384.22C500.54 384.84 504.46 382.83 507.54 380.28C510.62 377.73 513.27 374.58 516.54 372.28C519.81 369.98 524.12 368.5 527.88 369.93C530.88 371.06 532.94 373.75 534.75 376.38C536.56 379.01 538.4 381.8 541.2 383.38C544 384.96 548.09 384.64 549.73 381.9C550.73 380.18 550.58 378.03 550.61 376.02C550.69 370.07 552.93 364.38 553.96 358.52C554.488 355.51 554.702 352.454 554.6 349.4C554.536 351.509 554.323 353.611 553.96 355.69V355.69Z" fill="black"/>
</g>
<path opacity="0.1" d="M515.67 204.72C515.67 204.72 496.67 239.21 522.67 256.81C548.67 274.41 551.18 272.65 551.18 272.65C551.18 272.65 550.82 276.87 551.18 277.93C551.54 278.99 558.18 281.44 558.18 281.44C558.18 281.44 566.27 294.44 577.88 300.1C589.49 305.76 591.61 319.1 591.61 319.1C591.61 319.1 591.61 323.68 597.61 327.9C603.61 332.12 608.23 344.44 608.23 344.44V355.71C608.23 357.47 610.34 362.71 605.77 363.27C601.2 363.83 605.06 374.36 605.06 374.36C605.06 374.36 600.14 380.36 601.19 383.16C602.24 385.96 599.08 391.6 599.08 391.6C599.08 391.6 595.21 397.23 595.56 398.29C595.91 399.35 591.34 403.22 592.39 405.68C593.44 408.14 587.12 411.31 588.17 414.13C589.22 416.95 583.67 418.35 583.67 418.35L568.46 453.55C568.46 453.55 600.46 460.55 608.72 478.18L649.06 404.27C649.06 404.27 671.58 349.02 672.29 345.5C673 341.98 667.36 329.31 667.36 329.31L639.91 279.31L598.73 221.24C598.73 221.24 566 151.58 515.67 204.72Z" fill="black"/>
<path opacity="0.1" d="M556.3 219.27C556.3 219.27 506.86 236.62 532.9 254.22C558.94 271.82 561.41 270.05 561.41 270.05C561.41 270.05 561.06 274.28 561.41 275.33C561.76 276.38 568.41 278.85 568.41 278.85C568.41 278.85 576.51 291.85 588.12 297.51C599.73 303.17 601.85 316.51 601.85 316.51C601.85 316.51 601.85 321.09 607.85 325.31C613.85 329.53 618.41 341.85 618.41 341.85V353.11C618.41 354.87 620.52 360.11 615.94 360.68C611.36 361.25 615.24 371.77 615.24 371.77C615.24 371.77 610.31 377.77 611.37 380.56C612.43 383.35 609.26 389.01 609.26 389.01C609.26 389.01 605.39 394.64 605.74 395.7C606.09 396.76 601.51 400.63 602.57 403.09C603.63 405.55 597.29 408.72 598.35 411.54C599.41 414.36 593.84 415.76 593.84 415.76L578.64 450.95C578.64 450.95 605 452.31 613.32 469.95L659.23 401.72C659.23 401.72 681.76 346.47 682.46 342.95C683.16 339.43 677.55 326.72 677.55 326.72L650.1 276.72L587.48 240.6C587.48 240.6 606.63 166.12 556.3 219.27Z" fill="black"/>
<path d="M518.49 204.72C518.49 204.72 499.49 239.21 525.49 256.81C551.49 274.41 554 272.65 554 272.65C554 272.65 553.65 276.87 554 277.93C554.35 278.99 561 281.44 561 281.44C561 281.44 569.1 294.44 580.71 300.1C592.32 305.76 594.44 319.1 594.44 319.1C594.44 319.1 594.44 323.68 600.44 327.9C606.44 332.12 611.05 344.44 611.05 344.44V355.71C611.05 357.47 613.16 362.71 608.58 363.27C604 363.83 607.88 374.36 607.88 374.36C607.88 374.36 602.95 380.36 604.01 383.16C605.07 385.96 601.9 391.6 601.9 391.6C601.9 391.6 598.03 397.23 598.38 398.29C598.73 399.35 594.15 403.22 595.21 405.68C596.27 408.14 589.93 411.31 590.99 414.13C592.05 416.95 586.48 418.35 586.48 418.35L571.28 453.55C571.28 453.55 603.22 460.55 611.53 478.18L651.87 404.27C651.87 404.27 674.4 349.02 675.1 345.5C675.8 341.98 670.17 329.31 670.17 329.31L642.72 279.31L601.55 221.26C601.55 221.26 568.81 151.58 518.49 204.72Z" fill="#C50512"/>
<g opacity="0.1">
<path d="M310.62 222.04C310.25 217.669 309.309 213.366 307.82 209.24C306.37 205.24 304.39 201.3 303.92 197.05C303.92 196.92 303.92 196.8 303.92 196.67C303.815 197.734 303.815 198.806 303.92 199.87C304.39 204.12 306.37 208.03 307.82 212.06C309.309 216.182 310.25 220.482 310.62 224.85C310.76 226.49 310.82 228.15 310.84 229.85C310.87 227.2 310.84 224.61 310.62 222.04Z" fill="black"/>
<path d="M345.04 265.86C342.89 270.58 336.36 271.33 331.36 269.94C327.092 268.717 323.175 266.498 319.931 263.466C316.687 260.434 314.209 256.676 312.7 252.5C311.31 248.202 310.634 243.706 310.7 239.19C310.64 244.7 310.85 250.14 312.7 255.31C314.208 259.487 316.686 263.247 319.93 266.281C323.174 269.314 327.091 271.535 331.36 272.76C336.36 274.14 342.89 273.4 345.04 268.67C345.95 266.67 345.86 264.35 345.82 262.07C345.802 263.371 345.537 264.657 345.04 265.86V265.86Z" fill="black"/>
<path d="M442.2 200.12C441.77 203.32 440.5 206.92 437.45 207.99C435.673 208.487 433.774 208.309 432.12 207.49C427.12 205.31 422.67 200.05 417.33 201.32C412.97 202.32 410.88 207.25 409.73 211.59C408.896 214.332 408.534 217.196 408.66 220.06C408.851 218.146 409.209 216.252 409.73 214.4C410.88 210.07 412.97 205.17 417.33 204.13C422.67 202.87 427.08 208.13 432.12 210.3C433.772 211.126 435.672 211.307 437.45 210.81C440.5 209.74 441.77 206.14 442.2 202.93C442.475 200.886 442.575 198.821 442.5 196.76C442.45 197.88 442.35 199.01 442.2 200.12Z" fill="black"/>
<path d="M414.65 240.86C411.65 243.03 407.58 240.72 404.29 238.99C400.77 237.14 396.29 235.99 392.94 238.12C391.79 238.84 390.86 239.88 389.74 240.65C387.435 242.076 384.701 242.642 382.02 242.25C375.65 241.6 373.27 237.57 368.42 234.45C364.86 232.16 357.42 231.18 355.3 235.88C354.791 237.264 354.65 238.755 354.89 240.21C354.956 239.69 355.094 239.182 355.3 238.7C357.43 233.99 364.86 234.97 368.42 237.27C373.27 240.39 375.65 244.42 382.02 245.07C384.702 245.454 387.435 244.884 389.74 243.46C390.86 242.7 391.79 241.66 392.94 240.94C396.32 238.84 400.77 239.94 404.29 241.81C407.58 243.53 411.63 245.81 414.65 243.67C416.41 242.41 416.83 240.17 416.44 237.96C416.235 239.119 415.594 240.157 414.65 240.86V240.86Z" fill="black"/>
<path d="M354.63 245.72C353.26 248.86 349.05 249.72 347.11 252.55C345.66 254.65 345.78 257.27 345.83 259.9C345.812 258.298 346.256 256.725 347.11 255.37C349.05 252.54 353.26 251.67 354.63 248.53C355.109 247.164 355.24 245.7 355.01 244.27C354.948 244.768 354.821 245.256 354.63 245.72V245.72Z" fill="black"/>
</g>
<path d="M383 142.5C280.2 138.1 287.167 223 303.5 266C286.3 288 296.333 293.167 303.5 293C376.3 255.4 404.833 159 410 115.5L383 142.5Z" fill="#C50512"/>
<ellipse cx="314.186" cy="243.063" rx="10.5594" ry="16.5933" transform="rotate(-44.8101 314.186 243.063)" fill="#D0D74D"/>
<path d="M653.023 207.509L652.5 207C652.683 207.163 652.857 207.333 653.023 207.509L689.5 243C684.667 255.333 671.4 281 657 285C652.5 282 640.5 265 629.5 265.5C641.632 250.417 662.988 218.08 653.023 207.509Z" fill="#DFE65D"/>
<path d="M668 800L677.5 743.579C672.598 757.77 630.894 749.038 611.989 743.579C616.696 753.533 613.02 780.691 611.989 786C621.237 797.74 654.757 800.301 668 800Z" fill="#DFE65D"/>
<path d="M735.767 332.975L737 328.5C737.104 330.076 736.663 331.567 735.767 332.975L722.82 379.965C710.73 385.379 674.078 394.234 661 387C650.296 387 678.404 360.349 670.204 353C687.691 350.941 728.152 344.946 735.767 332.975Z" fill="#DFE65D"/>
<path d="M566.665 458.386L566.245 459.171C566.377 458.896 566.517 458.634 566.665 458.386L590.592 413.65C603.781 414.879 628.669 417.271 636.5 430C645.82 435.263 611.974 463.069 615.5 473.5C597.721 466.05 573.751 446.46 566.665 458.386Z" fill="#DFE65D"/>
<path d="M612.164 365.346L612.417 364.846C612.339 365.018 612.255 365.185 612.164 365.346L594.552 400.22C584.407 399.514 562.559 395.696 556.32 386.068C557.483 382.082 567.177 369.386 564.283 361.444C578.118 366.864 606.712 375.074 612.164 365.346Z" fill="#DFE65D"/>
<path d="M560.634 346.747C573.331 346.529 587.414 330.078 594 321L584.5 304.5L568.5 291.5C575.603 302.072 555.517 314.986 542.124 324.929C551.283 326.856 557.564 343.334 560.634 346.747Z" fill="#DFE65D"/>
</g>
<defs>
<clipPath id="clip0_0_1">
<rect width="1097.1" height="790.89" fill="white" transform="translate(0 70)"/>
</clipPath>
</defs>
</svg>
